<svg width="35" height="35" viewBox="0 0 35 35" fill="none" xmlns="http://www.w3.org/2000/svg">
<circle cx="17.8286" cy="17.335" r="16" fill="#FDB813"/>
<g filter="url(#filter0_d_1966_4845)">
<circle cx="17.829" cy="17.3344" r="14.5951" fill="url(#paint0_radial_1966_4845)"/>
</g>
<mask id="mask0_1966_4845" style="mask-type:luminance" maskUnits="userSpaceOnUse" x="3" y="2" width="30" height="30">
<path d="M17.8009 31.8732C25.846 31.8732 32.3678 25.3513 32.3678 17.3062C32.3678 9.26111 25.846 2.73926 17.8009 2.73926C9.75574 2.73926 3.23389 9.26111 3.23389 17.3062C3.23389 25.3513 9.75574 31.8732 17.8009 31.8732Z" fill="white"/>
</mask>
<g mask="url(#mask0_1966_4845)">
<path d="M13.292 20.6074H11.6932C11.219 20.6074 10.7938 20.4326 10.5063 20.1451L9.98179 23.1441C9.94475 23.3308 9.75657 23.4938 9.56987 23.4938C9.38317 23.4938 9.24537 23.3308 9.28241 23.1441L10.57 15.8466C10.7567 14.759 11.7821 13.8848 12.8697 13.8848H14.4818C15.0064 13.8848 15.4568 14.0967 15.7561 14.4597C16.0554 14.8346 16.1681 15.3221 16.0806 15.8466L15.5813 18.6456C15.3931 19.7332 14.3692 20.6074 13.295 20.6074H13.292ZM15.3783 15.8466C15.5028 15.1472 15.0286 14.5841 14.3411 14.5841H12.7423C12.0429 14.5841 11.3924 15.1457 11.2679 15.8466L10.7686 18.6456C10.6441 19.345 11.1064 19.908 11.8058 19.908H13.4046C14.0921 19.908 14.7545 19.3465 14.8789 18.6456L15.3783 15.8466Z" fill="white"/>
<path d="M16.153 20.6079C15.9648 20.6079 15.8403 20.4583 15.8655 20.2701C15.9026 20.0834 16.0774 19.9322 16.2656 19.9322H19.4276C20.1018 19.9322 20.7523 19.3944 20.8649 18.7202C20.9775 18.0578 20.5271 17.5081 19.8529 17.5081H18.103C17.1028 17.5081 16.4286 16.6961 16.6034 15.696C16.7783 14.6958 17.7399 13.8838 18.7401 13.8838H21.6769C21.8636 13.8838 21.9762 14.0216 21.9525 14.2083C21.9155 14.3965 21.7525 14.5461 21.5643 14.5461H18.6275C17.9904 14.5461 17.3784 15.0588 17.2658 15.696C17.1532 16.3212 17.5903 16.8458 18.2274 16.8458H19.9774C20.4767 16.8458 20.9153 17.0325 21.2146 17.3955C21.5139 17.7452 21.6147 18.2208 21.5273 18.7202C21.3406 19.7574 20.3522 20.6064 19.315 20.6064H16.153V20.6079Z" fill="white"/>
<path d="M23.6775 20.6079C22.5899 20.6079 21.8535 19.7204 22.0402 18.6328L22.5395 15.8456C22.7262 14.758 23.7634 13.8838 24.851 13.8838H26.475C27.5626 13.8838 28.299 14.758 28.1123 15.8456L27.8501 17.2829C27.8249 17.4696 27.65 17.6207 27.4633 17.6207H22.8892L22.7025 18.6328C22.578 19.3455 23.0655 19.9322 23.7901 19.9322H26.9521C27.127 19.9322 27.2514 20.0819 27.2144 20.2701C27.1892 20.4583 27.0144 20.5946 26.8395 20.5946L23.6775 20.6064V20.6079ZM24.7399 14.5476C24.0153 14.5476 23.3278 15.1344 23.2033 15.8471L23.0033 16.9465H27.2514L27.4515 15.8471C27.5759 15.1344 27.0885 14.5476 26.3639 14.5476H24.7399Z" fill="white"/>
<path d="M2.62336 15.4211H4.93932L6.09803 16.9028H1.09717V17.3473H7.5205L6.70555 18.9773H5.09786V19.4218H6.95744L8.02874 17.3473H9.79942L9.8898 16.9028H6.75889L5.18677 14.9766H2.55816L2.62336 15.4211Z" fill="#FDB913"/>
<path d="M3.40417 13.7947C3.77652 13.7947 4.07836 13.4928 4.07836 13.1205C4.07836 12.7481 3.77652 12.4463 3.40417 12.4463C3.03183 12.4463 2.72998 12.7481 2.72998 13.1205C2.72998 13.4928 3.03183 13.7947 3.40417 13.7947Z" fill="#FDB913"/>
<path d="M3.4041 21.7506C3.70198 21.7506 3.94345 21.5091 3.94345 21.2112C3.94345 20.9134 3.70198 20.6719 3.4041 20.6719C3.10622 20.6719 2.86475 20.9134 2.86475 21.2112C2.86475 21.5091 3.10622 21.7506 3.4041 21.7506Z" fill="#FDB913"/>
<path d="M4.7362 11.7956C5.10855 11.7956 5.41039 11.4938 5.41039 11.1215C5.41039 10.7491 5.10855 10.4473 4.7362 10.4473C4.36386 10.4473 4.06201 10.7491 4.06201 11.1215C4.06201 11.4938 4.36386 11.7956 4.7362 11.7956Z" fill="#FDB913"/>
<path d="M4.7362 19.9812C5.10855 19.9812 5.41039 19.6793 5.41039 19.307C5.41039 18.9347 5.10855 18.6328 4.7362 18.6328C4.36386 18.6328 4.06201 18.9347 4.06201 19.307C4.06201 19.6793 4.36386 19.9812 4.7362 19.9812Z" fill="#FDB913"/>
<path d="M4.7362 23.9783C5.10855 23.9783 5.41039 23.6764 5.41039 23.3041C5.41039 22.9317 5.10855 22.6299 4.7362 22.6299C4.36386 22.6299 4.06201 22.9317 4.06201 23.3041C4.06201 23.6764 4.36386 23.9783 4.7362 23.9783Z" fill="#FDB913"/>
<path d="M6.07019 13.7947C6.44253 13.7947 6.74438 13.4928 6.74438 13.1205C6.74438 12.7481 6.44253 12.4463 6.07019 12.4463C5.69784 12.4463 5.396 12.7481 5.396 13.1205C5.396 13.4928 5.69784 13.7947 6.07019 13.7947Z" fill="#FDB913"/>
<path d="M6.07019 21.8845C6.44253 21.8845 6.74438 21.5827 6.74438 21.2103C6.74438 20.838 6.44253 20.5361 6.07019 20.5361C5.69784 20.5361 5.396 20.838 5.396 21.2103C5.396 21.5827 5.69784 21.8845 6.07019 21.8845Z" fill="#FDB913"/>
<path d="M11.5153 13.158C11.3034 13.158 11.1597 12.9846 11.1967 12.7742C11.2353 12.5623 11.4383 12.3904 11.6487 12.3904H12.1939L12.2236 12.2319C12.2473 12.0926 12.1525 11.9785 12.0147 11.9785H11.4798C11.4457 11.9785 11.422 11.9489 11.4294 11.9133C11.4338 11.8763 11.4679 11.8496 11.502 11.8496H12.0369C12.2488 11.8496 12.3895 12.02 12.3525 12.2319L12.1999 13.0928C12.1954 13.1298 12.1628 13.158 12.1273 13.158H11.5168H11.5153ZM11.6279 12.5179C11.4872 12.5179 11.3523 12.632 11.3257 12.7727C11.3019 12.912 11.3968 13.0261 11.5375 13.0261H12.0828L12.1732 12.5179H11.6279Z" fill="white"/>
<path d="M13.3555 13.0943C13.3481 13.1313 13.314 13.1595 13.2769 13.1595L12.6902 13.1565C12.5909 13.1565 12.4975 13.115 12.4427 13.0439C12.382 12.9713 12.3597 12.8735 12.3775 12.7742L12.4753 12.2319C12.4931 12.1326 12.5479 12.0348 12.6339 11.9622C12.7168 11.8911 12.8206 11.8496 12.9213 11.8496H13.5096C13.5466 11.8496 13.5703 11.8763 13.5659 11.9133C13.5585 11.9504 13.5244 11.9785 13.4873 11.9785H12.9035C12.7628 11.9785 12.6294 12.0926 12.6042 12.2319L12.5064 12.7742C12.4827 12.9135 12.5776 13.0276 12.7183 13.0276H13.3021C13.3392 13.0276 13.3629 13.0572 13.3555 13.0928V13.0943Z" fill="white"/>
<path d="M14.6906 12.231L14.538 13.0904C14.5335 13.1274 14.4994 13.1585 14.4594 13.1585C14.4224 13.1585 14.3957 13.1274 14.4016 13.0904L14.5543 12.231C14.578 12.0947 14.4861 11.985 14.3527 11.985H14.0416C13.9053 11.985 13.7793 12.0947 13.7541 12.231L13.6015 13.0904C13.5971 13.1274 13.56 13.1585 13.523 13.1585C13.4859 13.1585 13.4593 13.1274 13.4652 13.0904L13.7719 11.3553C13.7793 11.3182 13.8164 11.2871 13.8519 11.2871C13.8875 11.2871 13.9156 11.3182 13.9082 11.3553L13.806 11.9391C13.8816 11.8828 13.9734 11.8487 14.0668 11.8487H14.3779C14.5869 11.8487 14.7276 12.0191 14.6921 12.231H14.6906Z" fill="white"/>
</g>
<defs>
<filter id="filter0_d_1966_4845" x="0.970472" y="0.475843" width="33.7173" height="33.7173" filterUnits="userSpaceOnUse" color-interpolation-filters="sRGB">
<feFlood flood-opacity="0" result="BackgroundImageFix"/>
<feColorMatrix in="SourceAlpha" type="matrix" values="0 0 0 0 0 0 0 0 0 0 0 0 0 0 0 0 0 0 127 0" result="hardAlpha"/>
<feOffset/>
<feGaussianBlur stdDeviation="1.13171"/>
<feComposite in2="hardAlpha" operator="out"/>
<feColorMatrix type="matrix" values="0 0 0 0 0 0 0 0 0 0 0 0 0 0 0 0 0 0 0.25 0"/>
<feBlend mode="normal" in2="BackgroundImageFix" result="effect1_dropShadow_1966_4845"/>
<feBlend mode="normal" in="SourceGraphic" in2="effect1_dropShadow_1966_4845" result="shape"/>
</filter>
<radialGradient id="paint0_radial_1966_4845" cx="0" cy="0" r="1" gradientUnits="userSpaceOnUse" gradientTransform="translate(17.7549 14.8154) rotate(89.752) scale(17.1142)">
<stop stop-color="#065EA6"/>
<stop offset="1" stop-color="#092E4C"/>
</radialGradient>
</defs>
</svg>
