<svg width="52" height="60" viewBox="0 0 52 60" fill="none" xmlns="http://www.w3.org/2000/svg">
<g clip-path="url(#clip0_2288_47298)">
<path d="M26.0022 28.7408C33.9388 28.7408 40.3726 22.3069 40.3726 14.3704C40.3726 6.43384 33.9388 0 26.0022 0C18.0657 0 11.6318 6.43384 11.6318 14.3704C11.6318 22.3069 18.0657 28.7408 26.0022 28.7408Z" fill="#FF384B" fill-opacity="0.8"/>
<path d="M23.8314 10.8589C22.0125 14.0092 20.1936 17.1595 18.3748 20.3098C14.8408 26.4299 11.3069 32.5499 7.773 38.67C5.41254 42.759 3.05207 46.8481 0.691608 50.9372C0.36665 51.4968 0.0732844 52.0474 0.104878 52.729C0.168064 54.1416 1.35055 55.1255 2.71809 55.1346C4.08562 55.1436 5.45315 55.1346 6.82069 55.1346H25.7811C32.181 55.1346 38.5854 55.1346 44.9853 55.1346C46.4025 55.1346 47.8241 55.1436 49.2413 55.1346C50.5005 55.1255 51.6334 54.3673 51.8681 53.0675C52.0035 52.3047 51.7327 51.6548 51.3671 51.0184C49.0427 46.9925 46.7184 42.9667 44.394 38.9363C40.8736 32.8388 37.3533 26.7413 33.8329 20.6393C31.9508 17.3807 30.1545 14.0634 28.1867 10.8589C27.1802 9.22061 24.8514 9.21609 23.8404 10.8544C23.6508 11.1658 24.1383 11.4457 24.3278 11.1388C25.1854 9.75318 26.9997 9.95176 27.776 11.2742C28.0107 11.6758 28.2409 12.082 28.4756 12.4837L31.6755 18.0261C35.0334 23.8437 38.3913 29.6569 41.7492 35.4746C44.5159 40.2677 47.2871 45.0653 50.0537 49.8585C50.7488 51.0635 52.0486 52.6432 50.8165 53.9611C49.968 54.8683 48.1446 54.5659 47.0208 54.5659H3.95473C3.535 54.5659 3.11526 54.5659 2.69101 54.5659C1.15648 54.5478 0.199657 53.0133 0.930814 51.6412C1.44533 50.6754 2.02755 49.7411 2.57366 48.7933C3.85995 46.5683 5.14174 44.3432 6.42803 42.1182C9.8762 36.147 13.3199 30.1804 16.768 24.2093C19.1601 20.0616 21.5567 15.9184 23.9487 11.7706C24.0706 11.5585 24.1924 11.3509 24.3143 11.1388C24.4948 10.8228 24.0074 10.5385 23.8269 10.8544L23.8314 10.8589Z" fill="url(#paint0_radial_2288_47298)"/>
<path d="M26.0024 49.5879C27.4058 49.5879 28.5434 48.4502 28.5434 47.0469C28.5434 45.6435 27.4058 44.5059 26.0024 44.5059C24.5991 44.5059 23.4614 45.6435 23.4614 47.0469C23.4614 48.4502 24.5991 49.5879 26.0024 49.5879Z" fill="url(#paint1_radial_2288_47298)"/>
<path d="M22.0306 60.0002C22.7136 60.0002 23.2672 59.4465 23.2672 58.7635C23.2672 58.0805 22.7136 57.5269 22.0306 57.5269C21.3476 57.5269 20.7939 58.0805 20.7939 58.7635C20.7939 59.4465 21.3476 60.0002 22.0306 60.0002Z" fill="url(#paint2_radial_2288_47298)"/>
<path d="M29.974 60.0002C30.6569 60.0002 31.2106 59.4465 31.2106 58.7635C31.2106 58.0805 30.6569 57.5269 29.974 57.5269C29.291 57.5269 28.7373 58.0805 28.7373 58.7635C28.7373 59.4465 29.291 60.0002 29.974 60.0002Z" fill="url(#paint3_radial_2288_47298)"/>
<path d="M26.0022 42.7592C24.8964 42.7592 24.1111 41.8611 24.075 40.8005C24.066 40.5297 24.075 40.2543 24.075 39.9836V26.8543C24.075 25.8072 23.9396 24.6608 24.9867 24.0064C26.2324 23.2301 27.8436 24.1238 27.9249 25.5635C27.9384 25.7711 27.9249 25.9787 27.9249 26.1864V39.618C27.9249 39.9926 27.9249 40.3672 27.9249 40.7418C27.9113 41.8475 27.1305 42.7141 25.9977 42.7547C25.6366 42.7683 25.6321 43.3324 25.9977 43.3189C27.1756 43.2783 28.2272 42.4839 28.4439 41.2924C28.5026 40.972 28.489 40.6515 28.489 40.3266V26.4075C28.489 26.1548 28.498 25.8975 28.489 25.6448C28.4574 24.5661 27.7985 23.6092 26.7559 23.2707C25.7133 22.9323 24.4677 23.3791 23.8719 24.3404C23.5785 24.8188 23.5063 25.3469 23.5063 25.893V39.7128C23.5063 40.8727 23.4522 42.0416 24.5173 42.8269C24.9461 43.1429 25.4651 43.3189 25.9977 43.3189C26.3587 43.3189 26.3632 42.7547 25.9977 42.7547L26.0022 42.7592Z" fill="url(#paint4_radial_2288_47298)"/>
</g>
<defs>
<radialGradient id="paint0_radial_2288_47298" cx="0" cy="0" r="1" gradientUnits="userSpaceOnUse" gradientTransform="translate(25.9978 32.3874) scale(24.1553 24.1553)">
<stop stop-color="#0F5BAD"/>
<stop offset="0.28" stop-color="#0B5097"/>
<stop offset="0.84" stop-color="#023560"/>
<stop offset="1" stop-color="#002D4F"/>
</radialGradient>
<radialGradient id="paint1_radial_2288_47298" cx="0" cy="0" r="1" gradientUnits="userSpaceOnUse" gradientTransform="translate(26.0046 47.0474) rotate(143.72) scale(2.541)">
<stop stop-color="#0F5BAD"/>
<stop offset="0.28" stop-color="#0B5097"/>
<stop offset="0.84" stop-color="#023560"/>
<stop offset="1" stop-color="#002D4F"/>
</radialGradient>
<radialGradient id="paint2_radial_2288_47298" cx="0" cy="0" r="1" gradientUnits="userSpaceOnUse" gradientTransform="translate(22.031 58.7653) rotate(143.72) scale(1.23665)">
<stop stop-color="#0F5BAD"/>
<stop offset="0.28" stop-color="#0B5097"/>
<stop offset="0.84" stop-color="#023560"/>
<stop offset="1" stop-color="#002D4F"/>
</radialGradient>
<radialGradient id="paint3_radial_2288_47298" cx="0" cy="0" r="1" gradientUnits="userSpaceOnUse" gradientTransform="translate(29.9766 58.7667) rotate(143.72) scale(1.23665)">
<stop stop-color="#0F5BAD"/>
<stop offset="0.28" stop-color="#0B5097"/>
<stop offset="0.84" stop-color="#023560"/>
<stop offset="1" stop-color="#002D4F"/>
</radialGradient>
<radialGradient id="paint4_radial_2288_47298" cx="0" cy="0" r="1" gradientUnits="userSpaceOnUse" gradientTransform="translate(26.0022 33.2407) scale(7.14909 7.14909)">
<stop stop-color="#0F5BAD"/>
<stop offset="0.28" stop-color="#0B5097"/>
<stop offset="0.84" stop-color="#023560"/>
<stop offset="1" stop-color="#002D4F"/>
</radialGradient>
<clipPath id="clip0_2288_47298">
<rect width="51.7993" height="60" fill="white" transform="translate(0.100342)"/>
</clipPath>
</defs>
</svg>
