<svg width="16" height="17" viewBox="0 0 16 17" fill="none" xmlns="http://www.w3.org/2000/svg">
<path fill-rule="evenodd" clip-rule="evenodd" d="M0 8.5C0 4.08172 3.58172 0.5 8 0.5C12.4183 0.5 16 4.08172 16 8.5C16 12.9183 12.4183 16.5 8 16.5C3.58172 16.5 0 12.9183 0 8.5Z" fill="#58C46B"/>
<path fill-rule="evenodd" clip-rule="evenodd" d="M12.5455 5.26409C12.8172 5.57269 12.8066 6.06151 12.5218 6.35591L7.29127 11.7616C7.01568 12.0465 6.58209 12.0463 6.30673 11.7612L3.69594 9.05832C3.41131 8.76366 3.40107 8.27483 3.67307 7.96648C3.94507 7.65814 4.3963 7.64705 4.68092 7.94171L6.79964 10.1351L11.5377 5.23839C11.8225 4.94399 12.2737 4.9555 12.5455 5.26409Z" fill="white"/>
</svg>
