<svg width="18" height="14" viewBox="0 0 18 14" fill="none" xmlns="http://www.w3.org/2000/svg">
<path fill-rule="evenodd" clip-rule="evenodd" d="M-0.00012238 7C-0.000122397 6.6134 0.320466 6.3 0.715931 6.3L16.4691 6.3C16.8646 6.3 17.1852 6.6134 17.1852 7C17.1852 7.3866 16.8646 7.7 16.4691 7.7L0.715931 7.7C0.320466 7.7 -0.000122363 7.3866 -0.00012238 7Z" fill="#083F6D"/>
<path fill-rule="evenodd" clip-rule="evenodd" d="M9.5183 13.795C9.23866 13.5216 9.23866 13.0784 9.5183 12.805L15.4565 7L9.5183 1.19498C9.23866 0.921609 9.23866 0.478394 9.5183 0.205025C9.79794 -0.0683407 10.2513 -0.0683407 10.531 0.205025L16.9754 6.50503C17.2551 6.77839 17.2551 7.22161 16.9754 7.49497L10.531 13.795C10.2513 14.0683 9.79794 14.0683 9.5183 13.795Z" fill="#083F6D"/>
</svg>
