<svg width="32" height="32" viewBox="0 0 32 32" fill="none" xmlns="http://www.w3.org/2000/svg">
<path fill-rule="evenodd" clip-rule="evenodd" d="M0.5 27.96C0.5 27.3856 0.962639 26.92 1.53333 26.92H30.4667C31.0374 26.92 31.5 27.3856 31.5 27.96C31.5 28.5344 31.0374 29 30.4667 29H1.53333C0.962639 29 0.5 28.5344 0.5 27.96Z" fill="#6C6C6C"/>
<path fill-rule="evenodd" clip-rule="evenodd" d="M3.17198 3.60922C3.55955 3.21914 4.08522 3 4.63333 3H17.0333C17.5814 3 18.1071 3.21914 18.4947 3.60922C18.8823 3.99929 19.1 4.52835 19.1 5.08V27.96C19.1 28.5344 18.6374 29 18.0667 29C17.496 29 17.0333 28.5344 17.0333 27.96V5.08H4.63333V27.96C4.63333 28.5344 4.17069 29 3.6 29C3.02931 29 2.56667 28.5344 2.56667 27.96V5.08C2.56667 4.52835 2.7844 3.99929 3.17198 3.60922Z" fill="#6C6C6C"/>
<path fill-rule="evenodd" clip-rule="evenodd" d="M17.0333 12.36C17.0333 11.7856 17.496 11.32 18.0667 11.32H27.3667C27.9148 11.32 28.4404 11.5391 28.828 11.9292C29.2156 12.3193 29.4333 12.8484 29.4333 13.4V27.96C29.4333 28.5344 28.9707 29 28.4 29C27.8293 29 27.3667 28.5344 27.3667 27.96V13.4H18.0667C17.496 13.4 17.0333 12.9344 17.0333 12.36Z" fill="#6C6C6C"/>
<path fill-rule="evenodd" clip-rule="evenodd" d="M6.7 9.24C6.7 8.66562 7.16264 8.2 7.73333 8.2H11.8667C12.4374 8.2 12.9 8.66562 12.9 9.24C12.9 9.81438 12.4374 10.28 11.8667 10.28H7.73333C7.16264 10.28 6.7 9.81438 6.7 9.24Z" fill="#6C6C6C"/>
<path fill-rule="evenodd" clip-rule="evenodd" d="M8.76667 17.56C8.76667 16.9856 9.22931 16.52 9.8 16.52H13.9333C14.504 16.52 14.9667 16.9856 14.9667 17.56C14.9667 18.1344 14.504 18.6 13.9333 18.6H9.8C9.22931 18.6 8.76667 18.1344 8.76667 17.56Z" fill="#6C6C6C"/>
<path fill-rule="evenodd" clip-rule="evenodd" d="M6.7 22.76C6.7 22.1856 7.16264 21.72 7.73333 21.72H11.8667C12.4374 21.72 12.9 22.1856 12.9 22.76C12.9 23.3344 12.4374 23.8 11.8667 23.8H7.73333C7.16264 23.8 6.7 23.3344 6.7 22.76Z" fill="#6C6C6C"/>
<path fill-rule="evenodd" clip-rule="evenodd" d="M21.1667 22.76C21.1667 22.1856 21.6293 21.72 22.2 21.72H24.2667C24.8374 21.72 25.3 22.1856 25.3 22.76C25.3 23.3344 24.8374 23.8 24.2667 23.8H22.2C21.6293 23.8 21.1667 23.3344 21.1667 22.76Z" fill="#6C6C6C"/>
<path fill-rule="evenodd" clip-rule="evenodd" d="M21.1667 17.56C21.1667 16.9856 21.6293 16.52 22.2 16.52H24.2667C24.8374 16.52 25.3 16.9856 25.3 17.56C25.3 18.1344 24.8374 18.6 24.2667 18.6H22.2C21.6293 18.6 21.1667 18.1344 21.1667 17.56Z" fill="#6C6C6C"/>
</svg>
