<svg width="32" height="32" viewBox="0 0 32 32" fill="none" xmlns="http://www.w3.org/2000/svg">
<path fill-rule="evenodd" clip-rule="evenodd" d="M16.5289 8.41666C17.1026 8.41666 17.5676 8.90169 17.5676 9.5V16C17.5676 16.5983 17.1026 17.0833 16.5289 17.0833C15.9553 17.0833 15.4902 16.5983 15.4902 16V9.5C15.4902 8.90169 15.9553 8.41666 16.5289 8.41666Z" fill="#6C6C6C"/>
<path fill-rule="evenodd" clip-rule="evenodd" d="M15.6294 15.4585C15.9161 14.9403 16.5513 14.7626 17.0482 15.0615L22.4494 18.3115C22.9463 18.6105 23.1167 19.273 22.83 19.7913C22.5434 20.3095 21.9082 20.4873 21.4113 20.1883L16.01 16.9383C15.5132 16.6393 15.3427 15.9768 15.6294 15.4585Z" fill="#6C6C6C"/>
<path fill-rule="evenodd" clip-rule="evenodd" d="M4.0387 5.6676C4.61235 5.6676 5.0774 6.15263 5.0774 6.75093V11.0843H9.23219C9.80584 11.0843 10.2709 11.5693 10.2709 12.1676C10.2709 12.7659 9.80584 13.2509 9.23219 13.2509H4.0387C3.46504 13.2509 3 12.7659 3 12.1676V6.75093C3 6.15263 3.46504 5.6676 4.0387 5.6676Z" fill="#6C6C6C"/>
<path fill-rule="evenodd" clip-rule="evenodd" d="M14.1002 3.25057C16.5183 2.74811 19.025 3.00493 21.3032 3.98856C23.5813 4.97218 25.5286 6.63842 26.8987 8.77649C28.2687 10.9146 29 13.4284 29 16C29 18.5716 28.2687 21.0854 26.8987 23.2235C25.5286 25.3616 23.5813 27.0278 21.3032 28.0114C19.025 28.9951 16.5183 29.2519 14.1002 28.7494C11.6821 28.247 9.46116 27.0078 7.71839 25.1886C7.31292 24.7654 7.31319 24.0795 7.71899 23.6566C8.12479 23.2337 8.78246 23.234 9.18793 23.6572C10.6402 25.1731 12.491 26.2058 14.5061 26.6245C16.5212 27.0432 18.6101 26.8292 20.5086 26.0095C22.4071 25.1898 24.0298 23.8013 25.1715 22.0196C26.3132 20.2379 26.9226 18.143 26.9226 16C26.9226 13.857 26.3132 11.7621 25.1715 9.98041C24.0298 8.19868 22.4071 6.81015 20.5086 5.99046C18.6101 5.17077 16.5212 4.95675 14.5061 5.37548C12.491 5.7942 10.6402 6.82685 9.18793 8.34281L9.18655 8.34425L4.77209 12.9349C4.36585 13.3573 3.70819 13.3563 3.30315 12.9326C2.89811 12.5089 2.89908 11.823 3.30531 11.4005L7.71839 6.81137C7.71816 6.81161 7.71863 6.81112 7.71839 6.81137C9.46106 4.99262 11.6824 3.75297 14.1002 3.25057Z" fill="#6C6C6C"/>
</svg>
