<svg width="20" height="18" viewBox="0 0 20 18" fill="none" xmlns="http://www.w3.org/2000/svg">
<path fill-rule="evenodd" clip-rule="evenodd" d="M0 16.4305C0 16.0737 0.298477 15.7844 0.666667 15.7844H19.3333C19.7015 15.7844 20 16.0737 20 16.4305C20 16.7874 19.7015 17.0767 19.3333 17.0767H0.666667C0.298477 17.0767 0 16.7874 0 16.4305Z" fill="#797A7D"/>
<path fill-rule="evenodd" clip-rule="evenodd" d="M1.72386 1.30136C1.97391 1.05901 2.31304 0.922852 2.66667 0.922852H10.6667C11.0203 0.922852 11.3594 1.05901 11.6095 1.30136C11.8595 1.54372 12 1.87242 12 2.21516V16.4305C12 16.7874 11.7015 17.0767 11.3333 17.0767C10.9651 17.0767 10.6667 16.7874 10.6667 16.4305V2.21516H2.66667V16.4305C2.66667 16.7874 2.36819 17.0767 2 17.0767C1.63181 17.0767 1.33333 16.7874 1.33333 16.4305V2.21516C1.33333 1.87242 1.47381 1.54371 1.72386 1.30136Z" fill="#797A7D"/>
<path fill-rule="evenodd" clip-rule="evenodd" d="M10.6667 6.73824C10.6667 6.38138 10.9651 6.09208 11.3333 6.09208H17.3333C17.687 6.09208 18.0261 6.22824 18.2761 6.47059C18.5262 6.71295 18.6667 7.04165 18.6667 7.38439V16.4305C18.6667 16.7874 18.3682 17.0767 18 17.0767C17.6318 17.0767 17.3333 16.7874 17.3333 16.4305V7.38439H11.3333C10.9651 7.38439 10.6667 7.0951 10.6667 6.73824Z" fill="#797A7D"/>
<path fill-rule="evenodd" clip-rule="evenodd" d="M4 4.79977C4 4.44291 4.29848 4.15362 4.66667 4.15362H7.33333C7.70152 4.15362 8 4.44291 8 4.79977C8 5.15664 7.70152 5.44593 7.33333 5.44593H4.66667C4.29848 5.44593 4 5.15664 4 4.79977Z" fill="#797A7D"/>
<path fill-rule="evenodd" clip-rule="evenodd" d="M5.33333 9.96901C5.33333 9.61214 5.63181 9.32285 6 9.32285H8.66667C9.03486 9.32285 9.33333 9.61214 9.33333 9.96901C9.33333 10.3259 9.03486 10.6152 8.66667 10.6152H6C5.63181 10.6152 5.33333 10.3259 5.33333 9.96901Z" fill="#797A7D"/>
<path fill-rule="evenodd" clip-rule="evenodd" d="M4 13.1998C4 12.8429 4.29848 12.5536 4.66667 12.5536H7.33333C7.70152 12.5536 8 12.8429 8 13.1998C8 13.5566 7.70152 13.8459 7.33333 13.8459H4.66667C4.29848 13.8459 4 13.5566 4 13.1998Z" fill="#797A7D"/>
<path fill-rule="evenodd" clip-rule="evenodd" d="M13.3333 13.1998C13.3333 12.8429 13.6318 12.5536 14 12.5536H15.3333C15.7015 12.5536 16 12.8429 16 13.1998C16 13.5566 15.7015 13.8459 15.3333 13.8459H14C13.6318 13.8459 13.3333 13.5566 13.3333 13.1998Z" fill="#797A7D"/>
<path fill-rule="evenodd" clip-rule="evenodd" d="M13.3333 9.96901C13.3333 9.61214 13.6318 9.32285 14 9.32285H15.3333C15.7015 9.32285 16 9.61214 16 9.96901C16 10.3259 15.7015 10.6152 15.3333 10.6152H14C13.6318 10.6152 13.3333 10.3259 13.3333 9.96901Z" fill="#797A7D"/>
</svg>
