<svg width="16" height="14" viewBox="0 0 16 14" fill="none" xmlns="http://www.w3.org/2000/svg">
<path fill-rule="evenodd" clip-rule="evenodd" d="M0 12.98C0 12.6928 0.238781 12.46 0.533333 12.46H15.4667C15.7612 12.46 16 12.6928 16 12.98C16 13.2672 15.7612 13.5 15.4667 13.5H0.533333C0.238781 13.5 0 13.2672 0 12.98Z" fill="#202227"/>
<path fill-rule="evenodd" clip-rule="evenodd" d="M1.37909 0.804609C1.57912 0.609571 1.85044 0.5 2.13333 0.5H8.53333C8.81623 0.5 9.08754 0.609571 9.28758 0.804609C9.48762 0.999647 9.6 1.26418 9.6 1.54V12.98C9.6 13.2672 9.36122 13.5 9.06667 13.5C8.77212 13.5 8.53333 13.2672 8.53333 12.98V1.54H2.13333V12.98C2.13333 13.2672 1.89455 13.5 1.6 13.5C1.30545 13.5 1.06667 13.2672 1.06667 12.98V1.54C1.06667 1.26417 1.17905 0.999647 1.37909 0.804609Z" fill="#202227"/>
<path fill-rule="evenodd" clip-rule="evenodd" d="M8.53333 5.18C8.53333 4.89281 8.77212 4.66 9.06667 4.66H13.8667C14.1496 4.66 14.4209 4.76957 14.6209 4.96461C14.821 5.15965 14.9333 5.42418 14.9333 5.7V12.98C14.9333 13.2672 14.6946 13.5 14.4 13.5C14.1054 13.5 13.8667 13.2672 13.8667 12.98V5.7H9.06667C8.77212 5.7 8.53333 5.46719 8.53333 5.18Z" fill="#202227"/>
<path fill-rule="evenodd" clip-rule="evenodd" d="M3.2 3.62C3.2 3.33281 3.43878 3.1 3.73333 3.1H5.86667C6.16122 3.1 6.4 3.33281 6.4 3.62C6.4 3.90719 6.16122 4.14 5.86667 4.14H3.73333C3.43878 4.14 3.2 3.90719 3.2 3.62Z" fill="#202227"/>
<path fill-rule="evenodd" clip-rule="evenodd" d="M4.26667 7.78C4.26667 7.49281 4.50545 7.26 4.8 7.26H6.93333C7.22789 7.26 7.46667 7.49281 7.46667 7.78C7.46667 8.06719 7.22789 8.3 6.93333 8.3H4.8C4.50545 8.3 4.26667 8.06719 4.26667 7.78Z" fill="#202227"/>
<path fill-rule="evenodd" clip-rule="evenodd" d="M3.2 10.38C3.2 10.0928 3.43878 9.86 3.73333 9.86H5.86667C6.16122 9.86 6.4 10.0928 6.4 10.38C6.4 10.6672 6.16122 10.9 5.86667 10.9H3.73333C3.43878 10.9 3.2 10.6672 3.2 10.38Z" fill="#202227"/>
<path fill-rule="evenodd" clip-rule="evenodd" d="M10.6667 10.38C10.6667 10.0928 10.9054 9.86 11.2 9.86H12.2667C12.5612 9.86 12.8 10.0928 12.8 10.38C12.8 10.6672 12.5612 10.9 12.2667 10.9H11.2C10.9054 10.9 10.6667 10.6672 10.6667 10.38Z" fill="#202227"/>
<path fill-rule="evenodd" clip-rule="evenodd" d="M10.6667 7.78C10.6667 7.49281 10.9054 7.26 11.2 7.26H12.2667C12.5612 7.26 12.8 7.49281 12.8 7.78C12.8 8.06719 12.5612 8.3 12.2667 8.3H11.2C10.9054 8.3 10.6667 8.06719 10.6667 7.78Z" fill="#202227"/>
</svg>
