<svg width="29" height="24" viewBox="0 0 29 24" fill="none" xmlns="http://www.w3.org/2000/svg">
<path fill-rule="evenodd" clip-rule="evenodd" d="M0 23.04C0 22.5098 0.432791 22.08 0.966667 22.08H28.0333C28.5672 22.08 29 22.5098 29 23.04C29 23.5702 28.5672 24 28.0333 24H0.966667C0.432791 24 0 23.5702 0 23.04Z" fill="#FDB813"/>
<path fill-rule="evenodd" clip-rule="evenodd" d="M2.49959 0.562355C2.86216 0.202286 3.35391 0 3.86667 0H15.4667C15.9794 0 16.4712 0.202285 16.8337 0.562355C17.1963 0.922426 17.4 1.41079 17.4 1.92V23.04C17.4 23.5702 16.9672 24 16.4333 24C15.8995 24 15.4667 23.5702 15.4667 23.04V1.92H3.86667V23.04C3.86667 23.5702 3.43388 24 2.9 24C2.36612 24 1.93333 23.5702 1.93333 23.04V1.92C1.93333 1.41078 2.13702 0.922424 2.49959 0.562355Z" fill="#FDB813"/>
<path fill-rule="evenodd" clip-rule="evenodd" d="M15.4667 8.64C15.4667 8.10981 15.8995 7.68 16.4333 7.68H25.1333C25.6461 7.68 26.1378 7.88229 26.5004 8.24236C26.863 8.60243 27.0667 9.09079 27.0667 9.6V23.04C27.0667 23.5702 26.6339 24 26.1 24C25.5661 24 25.1333 23.5702 25.1333 23.04V9.6H16.4333C15.8995 9.6 15.4667 9.17019 15.4667 8.64Z" fill="#FDB813"/>
<path fill-rule="evenodd" clip-rule="evenodd" d="M5.8 5.76C5.8 5.22981 6.23279 4.8 6.76667 4.8H10.6333C11.1672 4.8 11.6 5.22981 11.6 5.76C11.6 6.29019 11.1672 6.72 10.6333 6.72H6.76667C6.23279 6.72 5.8 6.29019 5.8 5.76Z" fill="#FDB813"/>
<path fill-rule="evenodd" clip-rule="evenodd" d="M7.73333 13.44C7.73333 12.9098 8.16612 12.48 8.7 12.48H12.5667C13.1005 12.48 13.5333 12.9098 13.5333 13.44C13.5333 13.9702 13.1005 14.4 12.5667 14.4H8.7C8.16612 14.4 7.73333 13.9702 7.73333 13.44Z" fill="#FDB813"/>
<path fill-rule="evenodd" clip-rule="evenodd" d="M5.8 18.24C5.8 17.7098 6.23279 17.28 6.76667 17.28H10.6333C11.1672 17.28 11.6 17.7098 11.6 18.24C11.6 18.7702 11.1672 19.2 10.6333 19.2H6.76667C6.23279 19.2 5.8 18.7702 5.8 18.24Z" fill="#FDB813"/>
<path fill-rule="evenodd" clip-rule="evenodd" d="M19.3333 18.24C19.3333 17.7098 19.7661 17.28 20.3 17.28H22.2333C22.7672 17.28 23.2 17.7098 23.2 18.24C23.2 18.7702 22.7672 19.2 22.2333 19.2H20.3C19.7661 19.2 19.3333 18.7702 19.3333 18.24Z" fill="#FDB813"/>
<path fill-rule="evenodd" clip-rule="evenodd" d="M19.3333 13.44C19.3333 12.9098 19.7661 12.48 20.3 12.48H22.2333C22.7672 12.48 23.2 12.9098 23.2 13.44C23.2 13.9702 22.7672 14.4 22.2333 14.4H20.3C19.7661 14.4 19.3333 13.9702 19.3333 13.44Z" fill="#FDB813"/>
</svg>
