<svg width="26" height="24" viewBox="0 0 26 24" fill="none" xmlns="http://www.w3.org/2000/svg">
<path fill-rule="evenodd" clip-rule="evenodd" d="M13.5093 5C14.0616 5 14.5093 5.44772 14.5093 6V12C14.5093 12.5523 14.0616 13 13.5093 13C12.957 13 12.5093 12.5523 12.5093 12V6C12.5093 5.44772 12.957 5 13.5093 5Z" fill="#FDB813"/>
<path fill-rule="evenodd" clip-rule="evenodd" d="M12.6433 11.5002C12.9192 11.0218 13.5308 10.8577 14.0092 11.1337L19.2092 14.1337C19.6875 14.4097 19.8516 15.0213 19.5756 15.4996C19.2996 15.978 18.6881 16.1421 18.2097 15.8661L13.0097 12.8661C12.5313 12.5901 12.3673 11.9786 12.6433 11.5002Z" fill="#FDB813"/>
<path fill-rule="evenodd" clip-rule="evenodd" d="M1.48438 2.4624C2.03666 2.4624 2.48438 2.91012 2.48438 3.4624V7.4624H6.48438C7.03666 7.4624 7.48438 7.91012 7.48438 8.4624C7.48438 9.01469 7.03666 9.4624 6.48438 9.4624H1.48438C0.93209 9.4624 0.484375 9.01469 0.484375 8.4624V3.4624C0.484375 2.91012 0.93209 2.4624 1.48438 2.4624Z" fill="#FDB813"/>
<path fill-rule="evenodd" clip-rule="evenodd" d="M11.171 0.231299C13.4991 -0.232517 15.9124 0.00455064 18.1057 0.912514C20.2989 1.82048 22.1737 3.35854 23.4927 5.33215C24.8117 7.30575 25.5157 9.62621 25.5157 12C25.5157 14.3738 24.8117 16.6943 23.4927 18.6679C22.1737 20.6415 20.2989 22.1795 18.1057 23.0875C15.9124 23.9955 13.4991 24.2325 11.171 23.7687C8.843 23.3049 6.70482 22.161 5.02698 20.4818C4.63661 20.0911 4.63687 19.458 5.02756 19.0676C5.41824 18.6772 6.05141 18.6775 6.44177 19.0682C7.83997 20.4675 9.62179 21.4207 11.5618 21.8073C13.5019 22.1938 15.5129 21.9962 17.3407 21.2396C19.1684 20.4829 20.7307 19.2012 21.8299 17.5566C22.929 15.9119 23.5157 13.9782 23.5157 12C23.5157 10.0218 22.929 8.08812 21.8299 6.44346C20.7307 4.79879 19.1684 3.51707 17.3407 2.76043C15.5129 2.00379 13.5019 1.80624 11.5618 2.19275C9.62179 2.57926 7.83997 3.53248 6.44177 4.93182L6.44044 4.93315L2.19044 9.17065C1.79934 9.5606 1.16618 9.55967 0.776227 9.16857C0.386279 8.77747 0.387211 8.14431 0.77831 7.75436L5.02698 3.51819C5.02675 3.51841 5.0272 3.51796 5.02698 3.51819C6.70472 1.83935 8.84331 0.695053 11.171 0.231299Z" fill="#FDB813"/>
</svg>
