<svg width="36" height="36" viewBox="0 0 36 36" fill="none" xmlns="http://www.w3.org/2000/svg">
<g filter="url(#filter0_d_644_55710)">
<circle cx="18.1868" cy="16.5579" r="15.5579" fill="white"/>
</g>
<path fill-rule="evenodd" clip-rule="evenodd" d="M18.501 7.61538C13.5941 7.61538 9.61636 11.5932 9.61636 16.5C9.61636 21.4068 13.5941 25.3846 18.501 25.3846C23.4078 25.3846 27.3856 21.4068 27.3856 16.5C27.3856 11.5932 23.4078 7.61538 18.501 7.61538ZM8.00098 16.5C8.00098 10.701 12.702 6 18.501 6C24.3 6 29.001 10.701 29.001 16.5C29.001 22.299 24.3 27 18.501 27C12.702 27 8.00098 22.299 8.00098 16.5Z" fill="#065EA6"/>
<path fill-rule="evenodd" clip-rule="evenodd" d="M18.501 12.4615C16.7167 12.4615 15.2702 13.908 15.2702 15.6923C15.2702 17.4766 16.7167 18.9231 18.501 18.9231C20.2853 18.9231 21.7317 17.4766 21.7317 15.6923C21.7317 13.908 20.2853 12.4615 18.501 12.4615ZM13.6548 15.6923C13.6548 13.0159 15.8245 10.8462 18.501 10.8462C21.1774 10.8462 23.3471 13.0159 23.3471 15.6923C23.3471 18.3688 21.1774 20.5385 18.501 20.5385C15.8245 20.5385 13.6548 18.3688 13.6548 15.6923Z" fill="#065EA6"/>
<path fill-rule="evenodd" clip-rule="evenodd" d="M18.501 20.5385C17.3077 20.5385 16.1376 20.8683 15.1207 21.4925C14.1037 22.1167 13.2795 23.0103 12.7393 24.0743C12.5374 24.4721 12.0512 24.6308 11.6535 24.4289C11.2557 24.2269 11.097 23.7408 11.2989 23.343C11.9741 22.0131 13.0044 20.896 14.2756 20.1158C15.5468 19.3355 17.0094 18.9231 18.501 18.9231C19.9925 18.9231 21.4548 19.3355 22.726 20.1158C23.9972 20.896 25.0275 22.0131 25.7028 23.343C25.9047 23.7408 25.746 24.2269 25.3482 24.4289C24.9504 24.6308 24.4643 24.4721 24.2624 24.0743C23.7222 23.0103 22.8979 22.1167 21.881 21.4925C20.864 20.8683 19.6942 20.5385 18.501 20.5385Z" fill="#065EA6"/>
<defs>
<filter id="filter0_d_644_55710" x="0.458037" y="0.276377" width="35.4575" height="35.4575" filterUnits="userSpaceOnUse" color-interpolation-filters="sRGB">
<feFlood flood-opacity="0" result="BackgroundImageFix"/>
<feColorMatrix in="SourceAlpha" type="matrix" values="0 0 0 0 0 0 0 0 0 0 0 0 0 0 0 0 0 0 127 0" result="hardAlpha"/>
<feOffset dy="1.44725"/>
<feGaussianBlur stdDeviation="1.08543"/>
<feComposite in2="hardAlpha" operator="out"/>
<feColorMatrix type="matrix" values="0 0 0 0 0 0 0 0 0 0 0 0 0 0 0 0 0 0 0.15 0"/>
<feBlend mode="normal" in2="BackgroundImageFix" result="effect1_dropShadow_644_55710"/>
<feBlend mode="normal" in="SourceGraphic" in2="effect1_dropShadow_644_55710" result="shape"/>
</filter>
</defs>
</svg>
