<svg width="16" height="16" viewBox="0 0 16 16" fill="none" xmlns="http://www.w3.org/2000/svg">
<path opacity="0.25" d="M8.06399 15.9999C6.82227 15.9809 5.70911 15.7422 4.64771 15.2618C4.23139 15.0737 3.80171 15.0726 3.37147 15.2151C2.65515 15.4522 1.93716 15.6854 1.22474 15.9348C0.847937 16.0667 0.517886 15.9949 0.25184 15.721C-0.0225533 15.4383 -0.0581744 15.0954 0.0748481 14.7186C0.330875 13.9945 0.575213 13.266 0.808977 12.5346C0.952574 12.086 0.879106 11.6474 0.688199 11.2222C0.319743 10.4018 0.106017 9.54354 0.0331046 8.64411C-0.133869 6.5831 0.434955 4.74137 1.67668 3.1067C2.64625 1.8299 3.91636 0.951621 5.42803 0.431219C6.40539 0.095045 7.41892 -0.0513355 8.45082 0.0160107C10.0059 0.117865 11.4341 0.612664 12.6914 1.53603C14.261 2.68926 15.2867 4.22208 15.7548 6.1178C15.9246 6.80517 16.0159 7.50591 15.9847 8.21332C15.9051 10.0222 15.3262 11.648 14.1702 13.0595C13.0766 14.3953 11.6907 15.2719 10.0332 15.7255C9.36416 15.9086 8.67735 15.9843 8.06344 15.9999H8.06399Z" fill="#065EA6"/>
<path d="M8.66198 9.34381C8.66198 9.77349 8.66365 10.2032 8.66198 10.6329C8.66031 11.0364 8.37757 11.3336 7.99909 11.3353C7.62062 11.3369 7.33119 11.0392 7.33008 10.639C7.32786 9.77293 7.32841 8.90634 7.33008 8.03974C7.33064 7.63455 7.61227 7.33957 7.99241 7.3379C8.372 7.33623 8.65975 7.63288 8.66198 8.03362C8.6642 8.46998 8.66198 8.9069 8.66198 9.34325V9.34381Z" fill="#065EA6"/>
<path d="M7.98554 6.21766C7.49519 6.2121 7.11504 5.81637 7.12117 5.31879C7.12729 4.83456 7.52524 4.45664 8.02617 4.45998C8.51596 4.46332 8.91447 4.86517 8.90667 5.34828C8.89833 5.8442 8.49648 6.22378 7.98554 6.21766Z" fill="#065EA6"/>
</svg>
