<svg width="56" height="38" viewBox="0 0 56 38" fill="none" xmlns="http://www.w3.org/2000/svg">
<path d="M11.9552 30.8353C17.1318 30.8353 21.3283 26.6841 21.3283 21.5633C21.3283 16.4425 17.1318 12.2913 11.9552 12.2913C6.77862 12.2913 2.58215 16.4425 2.58215 21.5633C2.58215 26.6841 6.77862 30.8353 11.9552 30.8353Z" fill="white" fill-opacity="0.2"/>
<path d="M14.0059 18.0774C9.24615 20.855 4.67623 25.0964 1 31.4815C1 31.4815 5.69022 26.82 13.1974 24.1978" stroke="white" stroke-width="1.54299" stroke-linecap="round" stroke-linejoin="bevel"/>
<path d="M34.0712 24.5732C35.564 25.1625 37.0854 25.8895 38.6281 26.7728L37.2335 29.8831L54.7267 25.5795L44.1931 10.9958L43.0523 14.2293C43.0523 14.2293 38.9767 13.1202 33.1456 13.1469" stroke="white" stroke-width="1.54299" stroke-linecap="round" stroke-linejoin="bevel"/>
<path d="M22.6219 31.0115H21.979V31.6544H22.6219V31.0115ZM22.6219 28.603H23.2648V28.0095L22.6732 27.9621L22.6219 28.603ZM18.5984 27.6679L18.3472 28.2599L18.358 28.2643L18.5984 27.6679ZM15.3115 25.5995L14.7822 25.2345L14.4615 25.6995L14.8814 26.0774L15.3115 25.5995ZM17.5783 22.3126L18.008 21.8344L17.4642 21.3457L17.049 21.9476L17.5783 22.3126ZM22.6219 24.8061L22.5131 25.4397L23.2648 25.5688V24.8061H22.6219ZM22.6219 21.1792H23.2648V20.6488L22.7441 20.548L22.6219 21.1792ZM20.8652 20.8392L20.9873 20.2079L20.9761 20.2059L20.8652 20.8392ZM16.8983 19.1391L16.4383 19.5884L16.4436 19.5937L16.8983 19.1391ZM16.5299 12.537L15.986 12.1942L16.5299 12.537ZM18.91 10.5253L19.1761 11.1106L19.1848 11.1065L18.91 10.5253ZM22.6219 9.70355L22.6473 10.346L23.2648 10.3216V9.70355H22.6219ZM22.6219 7.38008V6.73717H21.979V7.38008H22.6219ZM24.6904 7.38008H25.3333V6.73717H24.6904V7.38008ZM24.6904 9.78855H24.0475V10.3723L24.6285 10.4285L24.6904 9.78855ZM28.1756 10.5253L27.9752 11.1363L27.9872 11.14L28.1756 10.5253ZM31.4341 11.9703L32.0016 12.2724L32.2878 11.7348L31.7664 11.42L31.4341 11.9703ZM29.564 15.4839L29.2528 16.0465L29.8245 16.3627L30.1315 15.786L29.564 15.4839ZM27.0138 14.2938L26.785 14.8946L26.7896 14.8964L27.0138 14.2938ZM24.6904 13.6421L24.8012 13.0088L24.0475 12.8769V13.6421H24.6904ZM24.6904 17.3257H24.0475V17.8718L24.5864 17.9601L24.6904 17.3257ZM26.4188 17.609L26.5295 16.9757L26.5228 16.9746L26.4188 17.609ZM30.6691 19.3374L30.2351 19.8118L30.2403 19.8166L30.2457 19.8213L30.6691 19.3374ZM31.1508 25.7128L30.6176 25.3535L31.1508 25.7128ZM28.6289 27.7813L28.8958 28.3662L28.9003 28.3641L28.6289 27.7813ZM24.6904 28.6313L24.6591 27.9892L24.0475 28.019V28.6313H24.6904ZM24.6904 31.0115V31.6544H25.3333V31.0115H24.6904ZM22.6219 17.1273L22.5726 17.7683L23.2648 17.8216V17.1273H22.6219ZM22.6219 13.4721H23.2648V12.7986L22.5921 12.8299L22.6219 13.4721ZM20.6668 14.0105L21.0134 14.552L21.0186 14.5486L20.6668 14.0105ZM20.1851 16.2489L19.6269 16.5679L19.6321 16.577L19.6376 16.5859L20.1851 16.2489ZM20.8935 16.8156L20.6487 17.4102L20.6605 17.4148L20.8935 16.8156ZM22.2536 17.099L22.1896 17.7387L22.1969 17.7394L22.2043 17.74L22.2536 17.099ZM24.6904 24.9478H24.0475V25.633L24.7313 25.5894L24.6904 24.9478ZM26.8155 24.3811L26.4818 23.8315L26.8155 24.3811ZM27.4105 22.2276L26.8552 22.5516L26.8615 22.5623L26.8681 22.5728L27.4105 22.2276ZM26.6455 21.7176L26.4232 22.3209L26.4418 22.3277L26.4608 22.3334L26.6455 21.7176ZM25.0871 21.3776L24.9961 22.014L24.9986 22.0144L25.0871 21.3776ZM24.6904 21.3209L24.7813 20.6844L24.0475 20.5796V21.3209H24.6904ZM23.2648 31.0115V28.603H21.979V31.0115H23.2648ZM22.6732 27.9621C21.3186 27.8538 20.0414 27.5563 18.8387 27.0716L18.358 28.2643C19.6865 28.7996 21.0917 29.1255 22.5707 29.2439L22.6732 27.9621ZM18.8494 27.0761C17.6639 26.5731 16.6298 25.921 15.7416 25.1216L14.8814 26.0774C15.8822 26.9781 17.0393 27.7049 18.3473 28.2598L18.8494 27.0761ZM15.8407 25.9645L18.1075 22.6776L17.049 21.9476L14.7822 25.2345L15.8407 25.9645ZM17.1485 22.7908C18.7256 24.2082 20.5165 25.0969 22.5131 25.4397L22.7307 24.1725C20.9871 23.8731 19.4156 23.0995 18.008 21.8344L17.1485 22.7908ZM23.2648 24.8061V21.1792H21.979V24.8061H23.2648ZM22.7441 20.548L20.9873 20.208L20.743 21.4704L22.4998 21.8104L22.7441 20.548ZM20.9761 20.2059C19.2002 19.8947 18.0299 19.3616 17.3529 18.6845L16.4436 19.5937C17.3911 20.5412 18.8654 21.1414 20.7542 21.4725L20.9761 20.2059ZM17.3582 18.6899C16.7182 18.0346 16.3511 17.0476 16.3511 15.6256H15.0653C15.0653 17.2637 15.4916 18.619 16.4383 19.5883L17.3582 18.6899ZM16.3511 15.6256C16.3511 14.5372 16.6004 13.6308 17.0738 12.8799L15.986 12.1942C15.3638 13.1812 15.0653 14.3338 15.0653 15.6256H16.3511ZM17.0738 12.8799C17.5473 12.1288 18.2383 11.5368 19.1761 11.1105L18.644 9.93998C17.5039 10.4582 16.6081 11.2074 15.986 12.1942L17.0738 12.8799ZM19.1848 11.1065C20.1287 10.6603 21.2771 10.4 22.6473 10.346L22.5966 9.06114C21.0954 9.12039 19.7693 9.40793 18.6353 9.94403L19.1848 11.1065ZM23.2648 9.70355V7.38008H21.979V9.70355H23.2648ZM22.6219 8.02299H24.6904V6.73717H22.6219V8.02299ZM24.0475 7.38008V9.78855H25.3333V7.38008H24.0475ZM24.6285 10.4285C25.7512 10.5371 26.8665 10.7727 27.9753 11.1362L28.3759 9.91435C27.1801 9.52227 25.972 9.26666 24.7523 9.14863L24.6285 10.4285ZM27.9872 11.14C29.1103 11.4841 30.1479 11.9448 31.1018 12.5207L31.7664 11.42C30.718 10.787 29.5832 10.2842 28.364 9.91057L27.9872 11.14ZM30.8666 11.6683L28.9965 15.1818L30.1315 15.786L32.0016 12.2724L30.8666 11.6683ZM29.8752 14.9213C28.964 14.4172 28.0848 14.0063 27.2381 13.6913L26.7896 14.8964C27.5674 15.1858 28.3883 15.5682 29.2528 16.0465L29.8752 14.9213ZM27.2427 13.693C26.4151 13.3777 25.6011 13.1488 24.8012 13.0088L24.5796 14.2754C25.2908 14.3999 26.0258 14.6054 26.785 14.8946L27.2427 13.693ZM24.0475 13.6421V17.3257H25.3333V13.6421H24.0475ZM24.5864 17.9601L26.3148 18.2435L26.5228 16.9746L24.7944 16.6912L24.5864 17.9601ZM26.3081 18.2423C28.2028 18.5734 29.4786 19.1197 30.2351 19.8118L31.103 18.8631C30.0839 17.9307 28.5261 17.3246 26.5295 16.9757L26.3081 18.2423ZM30.2457 19.8213C30.988 20.4708 31.3862 21.3854 31.3862 22.6526H32.6721C32.6721 21.0864 32.1636 19.7909 31.0924 18.8536L30.2457 19.8213ZM31.3862 22.6526C31.3862 23.7114 31.1234 24.603 30.6176 25.3535L31.6839 26.0721C32.3493 25.0847 32.6721 23.9362 32.6721 22.6526H31.3862ZM30.6176 25.3535C30.1068 26.1115 29.3638 26.73 28.3576 27.1984L28.9003 28.3641C30.0853 27.8125 31.0235 27.0521 31.6839 26.0721L30.6176 25.3535ZM28.3621 27.1963C27.3787 27.6449 26.1506 27.9164 24.6591 27.9892L24.7217 29.2735C26.3281 29.1951 27.7258 28.8999 28.8958 28.3662L28.3621 27.1963ZM24.0475 28.6313V31.0115H25.3333V28.6313H24.0475ZM24.6904 30.3686H22.6219V31.6544H24.6904V30.3686ZM23.2648 17.1273V13.4721H21.979V17.1273H23.2648ZM22.5921 12.8299C21.7074 12.871 20.9323 13.0687 20.315 13.4724L21.0186 14.5486C21.3836 14.31 21.912 14.1487 22.6518 14.1143L22.5921 12.8299ZM20.3202 13.469C19.6767 13.8808 19.3155 14.4937 19.3155 15.2572H20.6013C20.6013 14.9629 20.7124 14.7446 21.0134 14.552L20.3202 13.469ZM19.3155 15.2572C19.3155 15.7328 19.4059 16.1812 19.6269 16.5679L20.7433 15.93C20.662 15.7877 20.6013 15.575 20.6013 15.2572H19.3155ZM19.6376 16.5859C19.8734 16.9692 20.2283 17.237 20.6487 17.4101L21.1383 16.2211C20.9165 16.1298 20.799 16.0198 20.7327 15.912L19.6376 16.5859ZM20.6605 17.4148C21.0762 17.5765 21.5935 17.6791 22.1896 17.7387L22.3175 16.4593C21.7802 16.4055 21.3908 16.3192 21.1265 16.2164L20.6605 17.4148ZM22.2043 17.74L22.5726 17.7683L22.6712 16.4863L22.3029 16.458L22.2043 17.74ZM24.7313 25.5894C25.6804 25.5288 26.5013 25.324 27.1492 24.9306L26.4818 23.8315C26.0719 24.0804 25.476 24.2534 24.6494 24.3062L24.7313 25.5894ZM27.1492 24.9306C27.8316 24.5163 28.2518 23.9012 28.2518 23.106H26.966C26.966 23.3687 26.8572 23.6036 26.4818 23.8315L27.1492 24.9306ZM28.2518 23.106C28.2518 22.6664 28.1771 22.2347 27.9529 21.8825L26.8681 22.5728C26.9085 22.6361 26.966 22.79 26.966 23.106H28.2518ZM27.9659 21.9037C27.7185 21.4797 27.2874 21.2389 26.8302 21.1018L26.4608 22.3334C26.7592 22.4229 26.8381 22.5222 26.8552 22.5516L27.9659 21.9037ZM26.8678 21.1143C26.4443 20.9583 25.8713 20.8374 25.1755 20.7408L24.9986 22.0144C25.6629 22.1066 26.1289 22.2124 26.4232 22.3209L26.8678 21.1143ZM25.178 20.7411L24.7813 20.6844L24.5995 21.9573L24.9961 22.014L25.178 20.7411ZM24.0475 21.3209V24.9478H25.3333V21.3209H24.0475Z" fill="white"/>
</svg>
