<svg width="28" height="28" viewBox="0 0 28 28" fill="none" xmlns="http://www.w3.org/2000/svg">
<path fill-rule="evenodd" clip-rule="evenodd" d="M14 5.70192C14.5729 5.70192 15.0373 6.16632 15.0373 6.73918V8.8137C15.0373 9.38656 14.5729 9.85096 14 9.85096C13.4271 9.85096 12.9627 9.38656 12.9627 8.8137V6.73918C12.9627 6.16632 13.4271 5.70192 14 5.70192Z" fill="#FDB813"/>
<path fill-rule="evenodd" clip-rule="evenodd" d="M14 18.149C14.5729 18.149 15.0373 18.6134 15.0373 19.1863V21.2608C15.0373 21.8337 14.5729 22.2981 14 22.2981C13.4271 22.2981 12.9627 21.8337 12.9627 21.2608V19.1863C12.9627 18.6134 13.4271 18.149 14 18.149Z" fill="#FDB813"/>
<path fill-rule="evenodd" clip-rule="evenodd" d="M14 2.59014C7.69851 2.59014 2.59014 7.69851 2.59014 14C2.59014 20.3015 7.69851 25.4099 14 25.4099C20.3015 25.4099 25.4099 20.3015 25.4099 14C25.4099 7.69851 20.3015 2.59014 14 2.59014ZM0.515625 14C0.515625 6.55279 6.55279 0.515625 14 0.515625C21.4472 0.515625 27.4844 6.55279 27.4844 14C27.4844 21.4472 21.4472 27.4844 14 27.4844C6.55279 27.4844 0.515625 21.4472 0.515625 14Z" fill="#FDB813"/>
<path fill-rule="evenodd" clip-rule="evenodd" d="M12.4441 9.85096C12.0315 9.85096 11.6357 10.0149 11.3439 10.3067C11.0521 10.5985 10.8882 10.9942 10.8882 11.4069C10.8882 11.8195 11.0521 12.2152 11.3439 12.507C11.6357 12.7988 12.0315 12.9627 12.4441 12.9627H15.5559C16.5187 12.9627 17.4421 13.3452 18.123 14.0261C18.8038 14.7069 19.1863 15.6303 19.1863 16.5931C19.1863 17.556 18.8038 18.4794 18.123 19.1602C17.4421 19.8411 16.5187 20.2236 15.5559 20.2236H10.8882C10.3154 20.2236 9.85096 19.7592 9.85096 19.1863C9.85096 18.6134 10.3154 18.149 10.8882 18.149H15.5559C15.9685 18.149 16.3643 17.9851 16.6561 17.6933C16.9479 17.4015 17.1118 17.0058 17.1118 16.5931C17.1118 16.1805 16.9479 15.7848 16.6561 15.493C16.3643 15.2012 15.9685 15.0373 15.5559 15.0373H12.4441C11.4813 15.0373 10.5579 14.6548 9.87702 13.9739C9.19619 13.2931 8.8137 12.3697 8.8137 11.4069C8.8137 10.444 9.19619 9.5206 9.87702 8.83976C10.5579 8.15893 11.4813 7.77644 12.4441 7.77644H17.1118C17.6846 7.77644 18.149 8.24084 18.149 8.8137C18.149 9.38657 17.6846 9.85096 17.1118 9.85096H12.4441Z" fill="#FDB813"/>
</svg>
