<svg width="22" height="22" viewBox="0 0 22 22" fill="none" xmlns="http://www.w3.org/2000/svg">
<path fill-rule="evenodd" clip-rule="evenodd" d="M4.12574 7.80384C5.55603 6.4093 7.80045 5 11 5C14.1995 5 16.444 6.4093 17.8743 7.80384C18.5877 8.49942 19.1021 9.19399 19.439 9.71565C19.6077 9.97693 19.7328 10.1962 19.8167 10.3523C19.8586 10.4304 19.8904 10.4929 19.9122 10.5371C19.9231 10.5592 19.9315 10.5767 19.9375 10.5894L19.9447 10.6047L19.947 10.6095L19.9477 10.6112L19.948 10.6119C19.948 10.6119 19.9483 10.6124 19.4 10.85C19.9483 11.0876 19.948 11.0881 19.948 11.0881L19.9477 11.0888L19.947 11.0905L19.9447 11.0953L19.9375 11.1106C19.9315 11.1233 19.9231 11.1408 19.9122 11.1629C19.8904 11.2071 19.8586 11.2696 19.8167 11.3477C19.7328 11.5038 19.6077 11.7231 19.439 11.9844C19.1021 12.506 18.5877 13.2006 17.8743 13.8962C16.444 15.2907 14.1995 16.7 11 16.7C7.80045 16.7 5.55603 15.2907 4.12574 13.8962C3.41232 13.2006 2.89788 12.506 2.56101 11.9844C2.39228 11.7231 2.26724 11.5038 2.18334 11.3477C2.14138 11.2696 2.10964 11.2071 2.08782 11.1629C2.0769 11.1408 2.06847 11.1233 2.06246 11.1106L2.05528 11.0953L2.05305 11.0905L2.05227 11.0888L2.05196 11.0881C2.05196 11.0881 2.05171 11.0876 2.6 10.85C2.05171 10.6124 2.05196 10.6119 2.05196 10.6119L2.05227 10.6112L2.05305 10.6095L2.05528 10.6047L2.06246 10.5894C2.06847 10.5767 2.0769 10.5592 2.08782 10.5371C2.10964 10.4929 2.14138 10.4304 2.18334 10.3523C2.26724 10.1962 2.39228 9.97693 2.56101 9.71565C2.89788 9.19399 3.41232 8.49942 4.12574 7.80384ZM2.6 10.85L2.05171 10.6124C1.98276 10.7637 1.98276 10.9363 2.05171 11.0876L2.6 10.85ZM3.27087 10.85C3.34146 10.9789 3.44282 11.154 3.57649 11.361C3.87712 11.8265 4.33768 12.4482 4.97426 13.0688C6.24397 14.3068 8.19955 15.53 11 15.53C13.8005 15.53 15.756 14.3068 17.0257 13.0688C17.6623 12.4482 18.1229 11.8265 18.4235 11.361C18.5572 11.154 18.6585 10.9789 18.7291 10.85C18.6585 10.7211 18.5572 10.546 18.4235 10.339C18.1229 9.87351 17.6623 9.25183 17.0257 8.63116C15.756 7.3932 13.8005 6.17 11 6.17C8.19955 6.17 6.24397 7.3932 4.97426 8.63116C4.33768 9.25183 3.87712 9.87351 3.57649 10.339C3.44282 10.546 3.34146 10.7211 3.27087 10.85ZM19.4 10.85L19.9483 11.0876C20.0172 10.9363 20.0172 10.7637 19.9483 10.6124L19.4 10.85Z" fill="white"/>
<path fill-rule="evenodd" clip-rule="evenodd" d="M11 8.51C9.67452 8.51 8.6 9.55765 8.6 10.85C8.6 12.1423 9.67452 13.19 11 13.19C12.3255 13.19 13.4 12.1423 13.4 10.85C13.4 9.55765 12.3255 8.51 11 8.51ZM7.4 10.85C7.4 8.91148 9.01178 7.34 11 7.34C12.9882 7.34 14.6 8.91148 14.6 10.85C14.6 12.7885 12.9882 14.36 11 14.36C9.01178 14.36 7.4 12.7885 7.4 10.85Z" fill="white"/>
</svg>
