<svg width="22" height="22" viewBox="0 0 22 22" fill="none" xmlns="http://www.w3.org/2000/svg">
<path fill-rule="evenodd" clip-rule="evenodd" d="M16.9373 10.3451C17.2658 10.1546 17.6864 10.2665 17.8769 10.595L19.8449 13.9895C20.0353 14.318 19.9234 14.7387 19.5949 14.9291C19.2664 15.1196 18.8457 15.0077 18.6553 14.6792L16.6873 11.2847C16.4969 10.9562 16.6088 10.5355 16.9373 10.3451Z" fill="white"/>
<path fill-rule="evenodd" clip-rule="evenodd" d="M13.1323 12.1534C13.5063 12.0875 13.8628 12.3372 13.9287 12.7112L14.5388 16.1745C14.6047 16.5484 14.355 16.9049 13.9811 16.9708C13.6071 17.0367 13.2506 16.787 13.1847 16.413L12.5745 12.9497C12.5087 12.5758 12.7584 12.2193 13.1323 12.1534Z" fill="white"/>
<path fill-rule="evenodd" clip-rule="evenodd" d="M8.85892 12.1447C9.23289 12.2104 9.48277 12.5668 9.41705 12.9408L8.80689 16.4127C8.74117 16.7867 8.38473 17.0365 8.01077 16.9708C7.63681 16.9051 7.38692 16.5487 7.45265 16.1747L8.0628 12.7028C8.12852 12.3289 8.48496 12.079 8.85892 12.1447Z" fill="white"/>
<path fill-rule="evenodd" clip-rule="evenodd" d="M5.05287 10.3443C5.38177 10.534 5.4946 10.9545 5.30488 11.2834L3.33691 14.6951C3.1472 15.024 2.72677 15.1368 2.39787 14.9471C2.06897 14.7574 1.95614 14.3369 2.14586 14.008L4.11383 10.5963C4.30355 10.2674 4.72397 10.1546 5.05287 10.3443Z" fill="white"/>
<path fill-rule="evenodd" clip-rule="evenodd" d="M2.31804 8.47996C2.61342 8.24138 3.04628 8.28743 3.28486 8.58281C4.65266 10.2763 7.12195 12.3749 11 12.3749C14.8781 12.3749 17.3474 10.2763 18.7152 8.58281C18.9538 8.28743 19.3866 8.24138 19.682 8.47996C19.9774 8.71854 20.0234 9.15139 19.7849 9.44678C18.2652 11.3283 15.4407 13.7499 11 13.7499C6.55935 13.7499 3.73489 11.3283 2.21519 9.44678C1.97661 9.15139 2.02266 8.71854 2.31804 8.47996Z" fill="white"/>
</svg>
