<svg width="15" height="15" viewBox="0 0 15 15" fill="none" xmlns="http://www.w3.org/2000/svg">
<path fill-rule="evenodd" clip-rule="evenodd" d="M7.5 2.88462C7.81863 2.88462 8.07692 3.14291 8.07692 3.46154V4.61538C8.07692 4.93401 7.81863 5.19231 7.5 5.19231C7.18137 5.19231 6.92308 4.93401 6.92308 4.61538V3.46154C6.92308 3.14291 7.18137 2.88462 7.5 2.88462Z" fill="#202227"/>
<path fill-rule="evenodd" clip-rule="evenodd" d="M7.5 9.80769C7.81863 9.80769 8.07692 10.066 8.07692 10.3846V11.5385C8.07692 11.8571 7.81863 12.1154 7.5 12.1154C7.18137 12.1154 6.92308 11.8571 6.92308 11.5385V10.3846C6.92308 10.066 7.18137 9.80769 7.5 9.80769Z" fill="#202227"/>
<path fill-rule="evenodd" clip-rule="evenodd" d="M7.5 1.15385C3.99512 1.15385 1.15385 3.99512 1.15385 7.5C1.15385 11.0049 3.99512 13.8462 7.5 13.8462C11.0049 13.8462 13.8462 11.0049 13.8462 7.5C13.8462 3.99512 11.0049 1.15385 7.5 1.15385ZM0 7.5C0 3.35786 3.35786 0 7.5 0C11.6421 0 15 3.35786 15 7.5C15 11.6421 11.6421 15 7.5 15C3.35786 15 0 11.6421 0 7.5Z" fill="#202227"/>
<path fill-rule="evenodd" clip-rule="evenodd" d="M6.63462 5.19231C6.4051 5.19231 6.18499 5.28348 6.0227 5.44577C5.8604 5.60806 5.76923 5.82818 5.76923 6.05769C5.76923 6.28721 5.8604 6.50732 6.0227 6.66961C6.18499 6.8319 6.4051 6.92308 6.63462 6.92308H8.36538C8.90092 6.92308 9.41452 7.13582 9.7932 7.5145C10.1719 7.89317 10.3846 8.40677 10.3846 8.94231C10.3846 9.47784 10.1719 9.99144 9.7932 10.3701C9.41452 10.7488 8.90092 10.9615 8.36538 10.9615H5.76923C5.45061 10.9615 5.19231 10.7032 5.19231 10.3846C5.19231 10.066 5.45061 9.80769 5.76923 9.80769H8.36538C8.5949 9.80769 8.81501 9.71652 8.9773 9.55423C9.1396 9.39194 9.23077 9.17182 9.23077 8.94231C9.23077 8.71279 9.1396 8.49268 8.9773 8.33039C8.81501 8.1681 8.5949 8.07692 8.36538 8.07692H6.63462C6.09908 8.07692 5.58548 7.86418 5.2068 7.4855C4.82812 7.10682 4.61538 6.59323 4.61538 6.05769C4.61538 5.52216 4.82812 5.00856 5.2068 4.62988C5.58548 4.2512 6.09908 4.03846 6.63462 4.03846H9.23077C9.54939 4.03846 9.80769 4.29676 9.80769 4.61538C9.80769 4.93401 9.54939 5.19231 9.23077 5.19231H6.63462Z" fill="#202227"/>
</svg>
