<svg width="16" height="17" viewBox="0 0 16 17" fill="none" xmlns="http://www.w3.org/2000/svg">
<path fill-rule="evenodd" clip-rule="evenodd" d="M0 8.5C0 4.08172 3.58172 0.5 8 0.5C12.4183 0.5 16 4.08172 16 8.5C16 12.9183 12.4183 16.5 8 16.5C3.58172 16.5 0 12.9183 0 8.5Z" fill="#FF606F"/>
<path fill-rule="evenodd" clip-rule="evenodd" d="M10.8965 5.60309C11.1368 5.84342 11.1368 6.23306 10.8965 6.47338L8.43492 8.93492L5.97338 11.3965C5.73306 11.6368 5.34342 11.6368 5.10309 11.3965C4.86277 11.1561 4.86277 10.7665 5.10309 10.5262L10.0262 5.60309C10.2665 5.36277 10.6561 5.36277 10.8965 5.60309Z" fill="white"/>
<path fill-rule="evenodd" clip-rule="evenodd" d="M5.10309 5.60309C5.34342 5.36277 5.73306 5.36277 5.97338 5.60309L8.43492 8.06463L10.8965 10.5262C11.1368 10.7665 11.1368 11.1561 10.8965 11.3965C10.6561 11.6368 10.2665 11.6368 10.0262 11.3965L5.10309 6.47338C4.86277 6.23306 4.86277 5.84342 5.10309 5.60309Z" fill="white"/>
</svg>
