<svg width="15" height="14" viewBox="0 0 15 14" fill="none" xmlns="http://www.w3.org/2000/svg">
<path fill-rule="evenodd" clip-rule="evenodd" d="M3.14286 5.22727C3.14286 4.90092 3.39869 4.63636 3.71429 4.63636H11.1429C11.4584 4.63636 11.7143 4.90092 11.7143 5.22727C11.7143 5.55362 11.4584 5.81818 11.1429 5.81818H3.71429C3.39869 5.81818 3.14286 5.55362 3.14286 5.22727Z" fill="#202227"/>
<path fill-rule="evenodd" clip-rule="evenodd" d="M3.14286 7.59091C3.14286 7.26456 3.39869 7 3.71429 7H11.1429C11.4584 7 11.7143 7.26456 11.7143 7.59091C11.7143 7.91726 11.4584 8.18182 11.1429 8.18182H3.71429C3.39869 8.18182 3.14286 7.91726 3.14286 7.59091Z" fill="#202227"/>
<path fill-rule="evenodd" clip-rule="evenodd" d="M0.334735 0.846147C0.549062 0.624513 0.839752 0.5 1.14286 0.5H13.7143C14.0174 0.5 14.3081 0.624513 14.5224 0.846147C14.7367 1.06778 14.8571 1.36838 14.8571 1.68182V12.9091C14.8571 13.1139 14.7546 13.3041 14.5861 13.4117C14.4177 13.5194 14.2073 13.5292 14.0302 13.4376L12 12.3879L9.96984 13.4376C9.80896 13.5208 9.61961 13.5208 9.45874 13.4376L7.42857 12.3879L5.39841 13.4376C5.23753 13.5208 5.04818 13.5208 4.88731 13.4376L2.85714 12.3879L0.826979 13.4376C0.649843 13.5292 0.439477 13.5194 0.271011 13.4117C0.102544 13.3041 0 13.1139 0 12.9091V1.68182C0 1.36838 0.120408 1.06778 0.334735 0.846147ZM13.7143 1.68182L1.14286 1.68182L1.14286 11.953L2.60159 11.1987C2.76247 11.1156 2.95182 11.1156 3.11269 11.1987L5.14286 12.2484L7.17302 11.1987C7.33389 11.1156 7.52325 11.1156 7.68412 11.1987L9.71428 12.2484L11.7444 11.1987C11.9053 11.1156 12.0947 11.1156 12.2556 11.1987L13.7143 11.953V1.68182Z" fill="#202227"/>
</svg>
